<svg xmlns="http://www.w3.org/2000/svg" width="43" height="40" viewBox="0 0 43 40">
  <g id="Group_490" data-name="Group 490" transform="translate(-798 110)">
    <rect id="Rectangle_1622" data-name="Rectangle 1622" width="43" height="40" rx="10" transform="translate(798 -110)" fill="rgba(34,52,190,0.17)"/>
    <path id="ic_call_end_24px" d="M12,9a14.911,14.911,0,0,0-4.6.72v3.1a1.008,1.008,0,0,1-.56.9,11.511,11.511,0,0,0-2.66,1.85.982.982,0,0,1-.7.28,1,1,0,0,1-.71-.29L.29,13.08a.956.956,0,0,1-.29-.7,1,1,0,0,1,.29-.71,17.016,17.016,0,0,1,23.42,0,1.014,1.014,0,0,1,0,1.42l-2.48,2.48a1,1,0,0,1-.71.29,1.026,1.026,0,0,1-.7-.28,11.27,11.27,0,0,0-2.67-1.85,1,1,0,0,1-.56-.9V9.73A14.516,14.516,0,0,0,12,9Z" transform="translate(806.802 -109.858) rotate(-1)" fill="#00205d"/>
    <path id="ic_group_24px" d="M16,11a3,3,0,1,0-3-3A2.987,2.987,0,0,0,16,11ZM8,11A3,3,0,1,0,5,8,2.987,2.987,0,0,0,8,11Zm0,2c-2.33,0-7,1.17-7,3.5V19H15V16.5C15,14.17,10.33,13,8,13Zm8,0c-.29,0-.62.02-.97.05A4.22,4.22,0,0,1,17,16.5V19h6V16.5C23,14.17,18.33,13,16,13Z" transform="translate(807 -99)" fill="#3f69b7"/>
  </g>
</svg>
